<?xml version="1.0" encoding="UTF-8" standalone="no"?>
<svg
   xmlns:dc="http://purl.org/dc/elements/1.1/"
   xmlns:cc="http://creativecommons.org/ns#"
   xmlns:rdf="http://www.w3.org/1999/02/22-rdf-syntax-ns#"
   xmlns:svg="http://www.w3.org/2000/svg"
   xmlns="http://www.w3.org/2000/svg"
   xmlns:sodipodi="http://sodipodi.sourceforge.net/DTD/sodipodi-0.dtd"
   xmlns:inkscape="http://www.inkscape.org/namespaces/inkscape"
   width="140"
   height="70"
   viewBox="0 0 37.041666 18.520834"
   version="1.1"
   id="svg8"
   inkscape:version="1.0.2 (e86c870879, 2021-01-15)"
   sodipodi:docname="logo-mobile.svg">
  <defs
     id="defs2" />
  <sodipodi:namedview
     id="base"
     pagecolor="#ffffff"
     bordercolor="#666666"
     borderopacity="1.0"
     inkscape:pageopacity="0.0"
     inkscape:pageshadow="2"
     inkscape:zoom="3.1807811"
     inkscape:cx="128.65333"
     inkscape:cy="62.690035"
     inkscape:document-units="mm"
     inkscape:current-layer="layer1"
     inkscape:document-rotation="0"
     showgrid="false"
     units="px"
     inkscape:window-width="1366"
     inkscape:window-height="704"
     inkscape:window-x="0"
     inkscape:window-y="27"
     inkscape:window-maximized="1" />
  <metadata
     id="metadata5">
    <rdf:RDF>
      <cc:Work
         rdf:about="">
        <dc:format>image/svg+xml</dc:format>
        <dc:type
           rdf:resource="http://purl.org/dc/dcmitype/StillImage" />
        <dc:title></dc:title>
      </cc:Work>
    </rdf:RDF>
  </metadata>
  <g
     inkscape:label="Layer 1"
     inkscape:groupmode="layer"
     id="layer1">
    <g
       aria-label="Bespoke"
       id="text12"
       style="font-size:10.5833px;line-height:1.25;font-family:'Pinyon Script';-inkscape-font-specification:'Pinyon Script';fill:#0b2822;stroke-width:0.264583">
      <path
         d="m 3.793944,11.65577 q -0.4547511,0 -0.775144,-0.217041 -0.3203928,-0.222208 -0.3203928,-0.527098 0,-0.23771 0.1601964,-0.335895 0.1601964,-0.09818 0.3203929,-0.09818 0.08785,0 0.1705316,0.05684 0.08785,0.05168 0.08785,0.180867 0,0.09818 -0.08785,0.175699 -0.082682,0.07751 -0.2015374,0.07751 -0.067179,0 -0.1343583,-0.0052 -0.062012,-0.01034 -0.1136878,-0.04651 v 0.03101 q 0,0.253213 0.2532137,0.41341 0.2532137,0.160196 0.6821268,0.160196 0.2583813,0 0.5064274,-0.07235 0.2532137,-0.07752 0.5632713,-0.289388 0.3100576,-0.21704 0.7441383,-0.625282 Q 6.0832027,10.120984 6.7033179,9.4646959 7.3234331,8.8032397 8.1967621,7.8317258 9.1837788,6.7000156 10.062275,5.9920507 10.940772,5.2840858 11.638401,4.9120167 11.354182,4.6226296 10.842587,4.4727684 10.33616,4.3177396 9.6747033,4.3177396 q -0.3617339,0 -0.775144,0.077514 Q 8.4913168,4.4676008 8.1295829,4.6019591 7.5094677,4.8293347 6.910023,5.2220743 6.3157459,5.6148139 5.8351566,6.0799003 5.3545673,6.5449868 5.0703479,7.0049055 4.7861284,7.4648243 4.7861284,7.8317258 q 0,0.3100576 0.2067051,0.4547512 0.206705,0.1446935 0.5012598,0.1446935 0.4392482,0 0.9715138,-0.2583813 Q 7.0030403,7.9144078 7.5043001,7.4596567 8.0055599,7.0049055 8.3621261,6.4106285 8.72386,5.8111837 8.8168773,5.1342246 q 0.02067,-0.1033525 0.031006,-0.1343583 0.010335,-0.031006 0.041341,-0.031006 0.056844,0 0.056844,0.1136878 0,0.7493059 -0.3152252,1.384924 Q 8.3156175,7.0979228 7.7988548,7.5630092 7.2820921,8.0280956 6.6619769,8.286477 6.0470293,8.5448583 5.442417,8.5448583 q -0.3100576,0 -0.5632713,-0.1705317 -0.2480461,-0.1756993 -0.2480461,-0.5581037 0,-0.5012598 0.2790518,-1.0128548 Q 5.1943709,6.2866054 5.6904631,5.821519 6.1865552,5.3564326 6.8376762,4.9946987 7.4887972,4.6277972 8.2277678,4.4159245 8.9719061,4.2040518 9.7367148,4.2040518 q 1.3952592,0 2.1497332,0.5787742 0.408242,-0.1963698 0.733803,-0.2842195 0.32556,-0.08785 0.558103,-0.08785 0.170532,0 0.170532,0.051676 0,0.031006 -0.165364,0.056844 -0.160197,0.02067 -0.459919,0.098185 -0.299722,0.077514 -0.702797,0.2842194 0.485757,0.4599188 0.485757,1.1472132 0,0.4599188 -0.28422,0.9043347 -0.284219,0.4392482 -0.754473,0.8009821 -0.465087,0.3617339 -1.007687,0.5839418 0.41341,0.3669015 0.41341,1.038693 0,0.4392483 -0.248046,0.8474908 Q 10.382668,10.63258 9.9640904,10.95814 9.5506803,11.278533 9.02875,11.469735 8.5068197,11.65577 7.948716,11.65577 q -0.4960922,0 -0.6769591,-0.191203 -0.180867,-0.191202 -0.180867,-0.382404 0,-0.268717 0.2325432,-0.589109 Q 7.5559763,10.172661 7.9435484,9.8832736 8.3311204,9.5938865 8.806542,9.407852 9.2819637,9.2218174 9.7677206,9.2218174 q 0.1085202,0 0.1085202,0.062011 0,0.072347 -0.1601965,0.072347 -0.4030749,0 -0.8371555,0.1705317 -0.428913,0.1653641 -0.7958145,0.428913 -0.3669015,0.2635486 -0.5942771,0.5632716 -0.2273756,0.299722 -0.2273756,0.568439 0,0.155028 0.1446936,0.289387 0.1446935,0.134358 0.5632713,0.134358 0.3669015,0 0.775144,-0.211873 0.4082425,-0.211872 0.7648088,-0.589109 0.3565662,-0.377237 0.5787737,-0.873329 0.227376,-0.5012598 0.227376,-1.080034 0,-0.2067051 -0.07751,-0.3307281 -0.2532141,0.082682 -0.5115954,0.1343583 -0.2583814,0.046509 -0.5064274,0.046509 -0.2377109,0 -0.3617339,-0.077514 Q 8.7341952,8.451841 8.7341952,8.369159 q 0,-0.124023 0.2583814,-0.2273756 0.2583813,-0.1033525 0.5891094,-0.1033525 0.3513987,0 0.630451,0.1395259 0.43408,-0.2118727 0.837155,-0.5736066 0.403075,-0.3617338 0.661456,-0.8474908 0.258382,-0.4909245 0.258382,-1.0696987 0,-0.3617339 -0.217041,-0.6407857 -0.113688,0.067179 -0.237711,0.1498612 -0.118855,0.082682 -0.248046,0.1756993 -0.428913,0.3203928 -0.84749,0.7183001 Q 10.000264,6.4881429 9.5455127,7.0204084 9.0907615,7.552674 8.5533283,8.2761417 7.5818145,9.5783837 6.6671445,10.358695 5.7576422,11.139007 4.9308219,11.48007 4.6466025,11.593758 4.362383,11.624764 4.0833311,11.65577 3.793944,11.65577 Z M 9.2251198,8.4415058 q 0.3720691,0 0.8268202,-0.1912022 -0.165364,-0.093017 -0.4650863,-0.093017 -0.2428785,0 -0.4185778,0.056844 -0.1705317,0.051676 -0.1705317,0.1136878 0,0.036173 0.062012,0.077514 0.067179,0.036173 0.1653641,0.036173 z"
         style="fill:#0b2822;stroke-width:0.264583"
         id="path1058" />
      <path
         d="m 12.093152,11.67644 q -0.506427,0 -0.723468,-0.263549 -0.21704,-0.263549 -0.227375,-0.645953 -0.0052,-0.279052 0.113688,-0.620115 0.118855,-0.3410638 0.248046,-0.5219307 0.382404,-0.5322655 0.82682,-0.8681613 0.444416,-0.3358957 0.868161,-0.4909245 0.428913,-0.1601965 0.754474,-0.1601965 0.315225,0 0.439248,0.1033526 0.129191,0.1033525 0.134358,0.2377108 0.0155,0.2015374 -0.21704,0.470254 -0.227376,0.263549 -0.800982,0.5736066 -0.573607,0.3100576 -1.601964,0.651121 -0.180867,0.289387 -0.242879,0.50126 -0.06201,0.206705 -0.06201,0.372069 0,0.242878 0.160196,0.377237 0.165364,0.134358 0.387572,0.134358 0.485757,0 0.909502,-0.180867 0.428913,-0.186035 0.780312,-0.465086 0.356566,-0.279052 0.625283,-0.563272 0.268716,-0.289387 0.439248,-0.5012595 0.170532,-0.2170403 0.227376,-0.2687166 l 0.10852,0.08785 q -0.07752,0.067179 -0.263549,0.2945547 -0.180867,0.2273757 -0.465086,0.5219307 -0.279052,0.294554 -0.645954,0.573606 -0.366901,0.279052 -0.816485,0.465087 -0.444416,0.186034 -0.956011,0.186034 z m -0.06718,-1.7156519 q 1.00252,-0.3513987 1.581294,-0.7234678 0.578774,-0.3772368 0.578774,-0.7183001 0,-0.2893871 -0.268717,-0.2893871 -0.346231,0 -0.749305,0.3720691 -0.403075,0.3720691 -0.940509,1.080034 -0.113687,0.1446936 -0.201537,0.2790519 z"
         style="fill:#0b2822;stroke-width:0.264583"
         id="path1060" />
      <path
         d="m 14.842329,11.76429 q -0.160196,0 -0.41341,-0.04134 -0.253213,-0.04134 -0.449583,-0.1757 -0.201538,-0.134358 -0.201538,-0.418577 0,-0.258382 0.160197,-0.423746 0.155028,-0.170531 0.346231,-0.253213 0.191202,-0.08268 0.284219,-0.08268 0.211873,0 0.211873,0.196369 -0.0052,0.08268 -0.118856,0.155029 -0.10852,0.06718 -0.242878,0.06718 -0.06201,0 -0.118855,-0.04134 -0.06201,-0.04651 -0.09818,-0.06718 -0.05684,0.05684 -0.170532,0.170532 -0.118855,0.10852 -0.118855,0.284219 0,0.19637 0.160196,0.294555 0.155029,0.09302 0.351399,0.124023 0.196369,0.02584 0.299722,0.02584 0.21704,0 0.542601,-0.170531 0.32556,-0.1757 0.604612,-0.583942 0.28422,-0.408243 0.366902,-1.11104 0.02584,-0.2480461 0.04651,-0.6872944 0.02584,-0.4392483 0.165364,-0.8423232 0.0052,-0.015503 0.0052,-0.046509 -0.19637,0.2428785 -0.423745,0.5219303 -0.227376,0.2790518 -0.439249,0.5374332 -0.206705,0.2583813 -0.356566,0.4392483 -0.103353,0.124023 -0.149861,0.1601964 -0.04651,0.036173 -0.04134,0.036173 -0.0052,0 -0.04134,0.00517 -0.03101,0 -0.05168,-0.036173 -0.01034,-0.025838 0.04651,-0.098185 0.06201,-0.072347 0.129191,-0.1550288 0.118855,-0.1343583 0.366901,-0.428913 0.248046,-0.2945547 0.521931,-0.6304505 0.279051,-0.3358957 0.480589,-0.5942771 0.03101,-0.1550288 0.09302,-0.2790518 0.06201,-0.124023 0.1757,-0.124023 0.206705,0 0.206705,0.1705316 -0.0052,0.098185 -0.237711,0.3669015 -0.139526,0.1653641 -0.149861,0.2170404 -0.01034,0.046509 -0.01034,0.124023 -0.0052,0.1860346 0.03617,0.4650864 0.04651,0.2738842 0.09819,0.5787742 0.05168,0.2997224 0.06718,0.5736066 0.0155,0.4082428 -0.09302,0.7079648 0.08268,0.01033 0.139525,0.01033 0.165364,0 0.377237,-0.149861 0.217041,-0.149861 0.428913,-0.356566 0.211873,-0.2067052 0.366902,-0.3927398 0.160196,-0.1860345 0.211872,-0.2583813 l 0.113688,0.08785 q -0.08785,0.093017 -0.258381,0.2893871 -0.170532,0.1912023 -0.387572,0.4030753 -0.21704,0.206705 -0.444416,0.356566 -0.222208,0.144693 -0.423745,0.144693 -0.04651,0 -0.08785,0 -0.04134,-0.0052 -0.08268,-0.01033 -0.242879,0.537433 -0.7183,0.744138 -0.475422,0.201538 -1.074867,0.201538 z"
         style="fill:#0b2822;stroke-width:0.264583"
         id="path1062" />
      <path
         d="m 14.439254,15.309282 q -0.06201,0 -0.180866,-0.0155 -0.124024,-0.01034 -0.19637,-0.03101 0.397907,-0.537433 0.899167,-1.214392 0.50126,-0.676959 1.038693,-1.410762 0.532265,-0.733803 1.04386,-1.436601 0.506428,-0.707964 0.909503,-1.2970738 Q 18.252963,9.490534 18.4545,9.2166498 18.656038,8.9427656 18.82657,8.71539 q 0.175699,-0.2273756 0.372069,-0.4909245 0.201537,-0.263549 0.485757,-0.6459534 0.289387,-0.387572 0.728635,-0.9818491 0.186035,0.02067 0.294555,0.025838 0.113688,0.00517 0.191202,0.00517 0.07235,0 0.144693,-0.00517 0.07752,-0.010335 0.149862,-0.031006 -0.454752,0.5529361 -0.764809,0.9301728 -0.310058,0.3720691 -0.52193,0.6356181 -0.211873,0.2583813 -0.377237,0.470254 -0.165364,0.2118727 -0.330728,0.4289131 -0.160197,0.2170403 -0.372069,0.5064274 -0.211873,0.2842195 -0.527098,0.7079652 l 0.03617,0.04134 q 1.607132,-1.5451207 2.371941,-1.943028 0.242878,-0.124023 0.428913,-0.1912022 0.191202,-0.072347 0.506427,-0.072347 0.258382,0 0.372069,0.1188555 0.118856,0.1188554 0.118856,0.3100576 0,0.3927396 -0.346231,0.857826 -0.341064,0.4650864 -1.209225,1.0800339 -0.516763,0.366902 -0.671791,0.532266 -0.155029,0.160196 -0.155029,0.273884 0,0.232543 0.366901,0.232543 0.361734,0 0.738971,-0.227375 0.377237,-0.232544 0.728635,-0.563272 0.351399,-0.335896 0.630451,-0.661456 0.284219,-0.3255605 0.444416,-0.5115951 l 0.113687,0.08785 q -0.155028,0.1756993 -0.444415,0.5064274 -0.28422,0.330728 -0.661457,0.682127 -0.372069,0.346231 -0.780311,0.589109 -0.408243,0.242879 -0.800982,0.242879 -0.30489,0 -0.454752,-0.134359 -0.144693,-0.139526 -0.144693,-0.377236 0,-0.351399 0.387572,-0.842324 0.387572,-0.4909241 1.312577,-1.1782185 0.459919,-0.3307281 0.563271,-0.4805893 0.103353,-0.1498612 0.103353,-0.2428784 0,-0.062012 -0.05684,-0.1136878 -0.05168,-0.051676 -0.155029,-0.051676 -0.242878,0 -0.475421,0.082682 -0.232544,0.082682 -0.50126,0.2428785 -0.330728,0.1912022 -0.749306,0.5219303 -0.418578,0.3307281 -0.862994,0.7441383 -0.444416,0.4082422 -0.873329,0.8526582 -0.423745,0.444416 -0.780311,0.868161 -0.258382,0.341064 -0.573607,0.80615 -0.320393,0.465087 -0.640786,0.956011 -0.32556,0.490925 -0.599444,0.919838 -0.279052,0.428913 -0.454752,0.713132 -0.180867,0.28422 -0.206705,0.325561 -0.05168,0.0155 -0.170531,0.02584 -0.118856,0.0155 -0.315226,0.0155 z"
         style="fill:#0b2822;stroke-width:0.264583"
         id="path1064" />
      <path
         d="m 22.965839,11.65577 q -0.434081,0 -0.640786,-0.19637 -0.206705,-0.201538 -0.232543,-0.490925 -0.0155,-0.351398 0.144693,-0.754473 Q 22.402567,9.8109269 22.59377,9.5370427 22.846983,9.1804764 23.208717,8.8549159 23.570451,8.5241878 23.999364,8.3174827 24.433445,8.10561 24.888196,8.10561 q 0.273884,0 0.470254,0.1446936 0.201537,0.1395259 0.222208,0.4495835 0.02584,0.4392483 -0.170532,0.9250052 -0.19637,0.4805897 -0.532265,0.8939997 0.03617,0.149861 0.232543,0.149861 0.191202,0 0.418578,-0.149861 0.227375,-0.155029 0.439248,-0.361734 0.21704,-0.2067052 0.372069,-0.3824045 0.155029,-0.1756993 0.206705,-0.2273756 l 0.113688,0.08785 q -0.09819,0.093017 -0.279052,0.2893871 -0.180867,0.1912023 -0.403075,0.3979073 -0.21704,0.201537 -0.449583,0.346231 -0.227376,0.144693 -0.428913,0.144693 -0.248046,0 -0.335896,-0.155028 -0.382404,0.43408 -0.862994,0.7183 -0.475421,0.279052 -0.93534,0.279052 z m 0.134358,-0.155029 q 0.180867,0 0.418578,-0.103353 0.237711,-0.103352 0.475422,-0.273884 0.397907,-0.284219 0.7183,-0.666624 v -0.02067 q 0,-0.320393 0.165364,-0.5064277 0.170531,-0.1912022 0.330728,-0.2428785 0.253214,-0.5270979 0.227375,-0.9456757 -0.0155,-0.2532137 -0.134358,-0.3513986 -0.113688,-0.098185 -0.253214,-0.098185 -0.299722,0 -0.73897,0.3565662 -0.434081,0.3513987 -0.971514,1.0180225 -0.382404,0.4805897 -0.537433,0.8113177 -0.149861,0.330728 -0.129191,0.573606 0,0.139526 0.09302,0.294555 0.09819,0.155029 0.335896,0.155029 z"
         style="fill:#0b2822;stroke-width:0.264583"
         id="path1066" />
      <path
         d="m 25.131074,11.573088 5.720563,-8.1700183 q 0.06201,0.00517 0.175699,0.015503 0.113688,0.010335 0.320393,0.00517 0.04134,0 0.09302,-0.00517 0.05684,-0.010335 0.124023,-0.015503 l -3.586333,4.9867598 q -0.7183,0.997352 -1.24023,1.7569935 -0.52193,0.759641 -0.940508,1.400426 -0.118855,-0.02584 -0.299722,-0.02584 -0.06718,0 -0.186035,0.02067 -0.124023,0.0155 -0.180867,0.03101 z m 3.240102,0.08268 q -0.284219,0 -0.403075,-0.165364 -0.113688,-0.170532 -0.113688,-0.387572 0,-0.19637 0.129191,-0.454752 0.129191,-0.258381 0.50126,-0.620115 0.149861,-0.1550286 0.201537,-0.232543 0.05168,-0.077514 0.05168,-0.1343583 0,-0.1963698 -0.30489,-0.2997224 -0.206705,0.1136878 -0.377237,0.1446936 -0.165364,0.025838 -0.253214,0.025838 -0.144693,0 -0.222208,-0.046509 -0.07235,-0.051676 -0.07235,-0.1136878 0,-0.093017 0.144694,-0.1653641 0.149861,-0.072347 0.351399,-0.072347 0.227375,0 0.423745,0.056844 0.118855,-0.056844 0.201537,-0.1291907 0.08785,-0.077514 0.227376,-0.2325432 0.186035,-0.2118727 0.39274,-0.4495835 0.206705,-0.2428785 0.459918,-0.4082426 0.253214,-0.1705316 0.563272,-0.1705316 0.248046,0 0.397907,0.1291906 0.155029,0.1291907 0.149861,0.2997224 -0.0052,0.1912022 -0.113688,0.2738842 -0.10852,0.082682 -0.253213,0.082682 -0.113688,0 -0.211873,-0.08785 -0.09302,-0.08785 -0.08268,-0.222208 0.0052,-0.098185 0.06201,-0.165364 0.06201,-0.067179 0.144694,-0.093017 -0.07751,-0.062012 -0.201537,-0.062012 -0.232544,0 -0.490925,0.1963698 -0.253214,0.1963698 -0.676959,0.733803 -0.09819,0.1188554 -0.201538,0.2118727 -0.09818,0.08785 -0.196369,0.1601964 0.490924,0.2273756 0.490924,0.6717915 0,0.2067047 -0.118855,0.4599187 -0.113688,0.248046 -0.58911,0.676959 -0.08268,0.08268 -0.139526,0.155029 -0.05684,0.07235 -0.05684,0.129191 0,0.07235 0.05168,0.118855 0.05168,0.04134 0.191202,0.04134 0.320393,0 0.666624,-0.191202 0.346231,-0.191202 0.676959,-0.475422 0.330728,-0.289387 0.604612,-0.578774 0.273884,-0.2893871 0.439249,-0.4960921 0.170531,-0.2067051 0.191202,-0.2273756 l 0.103352,0.093017 q -0.02584,0.02067 -0.206705,0.2325432 -0.180867,0.2118722 -0.470254,0.5115952 -0.284219,0.294555 -0.635618,0.589109 -0.346231,0.294555 -0.7183,0.490925 -0.366902,0.19637 -0.707965,0.19637 z"
         style="fill:#0b2822;stroke-width:0.264583"
         id="path1068" />
      <path
         d="m 31.378736,11.67644 q -0.506428,0 -0.723468,-0.263549 -0.21704,-0.263549 -0.227376,-0.645953 -0.0052,-0.279052 0.113688,-0.620115 Q 30.660436,9.8057592 30.789626,9.6248923 31.172031,9.0926268 31.616447,8.756731 32.060862,8.4208353 32.484608,8.2658065 32.913521,8.10561 33.239081,8.10561 q 0.315226,0 0.439249,0.1033526 0.12919,0.1033525 0.134358,0.2377108 0.0155,0.2015374 -0.21704,0.470254 -0.227376,0.263549 -0.800983,0.5736066 -0.573606,0.3100576 -1.601964,0.651121 -0.180867,0.289387 -0.242878,0.50126 -0.06201,0.206705 -0.06201,0.372069 0,0.242878 0.160197,0.377237 0.165364,0.134358 0.387572,0.134358 0.485756,0 0.909502,-0.180867 0.428913,-0.186035 0.780312,-0.465086 0.356566,-0.279052 0.625282,-0.563272 0.268717,-0.289387 0.439249,-0.5012595 0.170531,-0.2170403 0.227375,-0.2687166 l 0.10852,0.08785 q -0.07751,0.067179 -0.263549,0.2945547 -0.180867,0.2273757 -0.465086,0.5219307 -0.279052,0.294554 -0.645953,0.573606 -0.366902,0.279052 -0.816485,0.465087 -0.444416,0.186034 -0.956011,0.186034 z m -0.06718,-1.7156519 q 1.002519,-0.3513987 1.581293,-0.7234678 0.578775,-0.3772368 0.578775,-0.7183001 0,-0.2893871 -0.268717,-0.2893871 -0.346231,0 -0.749306,0.3720691 -0.403075,0.3720691 -0.940508,1.080034 -0.113688,0.1446936 -0.201537,0.2790519 z"
         style="fill:#0b2822;stroke-width:0.264583"
         id="path1070" />
    </g>
  </g>
</svg>
